HIERARCHY
ROOT Hips
{
	OFFSET 52.162701 13.533191 56.669403
	CHANNELS 6 Xposition Yposition Zposition Xrotation Yrotation Zrotation
	JOINT spine
	{
		OFFSET 0.000000 -0.458068 7.965675
		CHANNELS 3 Xrotation Yrotation Zrotation
		JOINT spine1
		{
			OFFSET 0.000000 -0.000002 10.243103
			CHANNELS 3 Xrotation Yrotation Zrotation
			JOINT spine2
			{
				OFFSET 0.000000 -0.000001 9.814751
				CHANNELS 3 Xrotation Yrotation Zrotation
				JOINT Neck
				{
					OFFSET 0.000000 -1.201385 25.198601
					CHANNELS 3 Xrotation Yrotation Zrotation
					JOINT Head
					{
						OFFSET 0.000000 -0.000001 7.613152
						CHANNELS 3 Xrotation Yrotation Zrotation
						End Site
						{
							OFFSET 0.000000 6.077327 18.428101
						}
					}
				}
				JOINT RightShoulder
				{
					OFFSET -4.132702 0.575449 10.599197
					CHANNELS 3 Xrotation Yrotation Zrotation
					JOINT RightArm
					{
						OFFSET 0.000000 -0.000003 13.901802
						CHANNELS 3 Xrotation Yrotation Zrotation
						JOINT RightArmRoll
						{
							OFFSET 0.000000 -0.000001 7.017891
							CHANNELS 3 Xrotation Yrotation Zrotation
							JOINT RightForeArm
							{
								OFFSET 0.000000 -0.000003 20.440598
								CHANNELS 3 Xrotation Yrotation Zrotation
								JOINT RightForeArmRoll
								{
									OFFSET 0.000000 -0.000002 7.875168
									CHANNELS 3 Xrotation Yrotation Zrotation
									JOINT RightHand
									{
										OFFSET 0.000000 -0.000002 15.803696
										CHANNELS 3 Xrotation Yrotation Zrotation
										End Site
										{
											OFFSET 0.000000 0.000000 0.100006
										}
									}
								}
							}
						}
					}
				}
				JOINT LeftShoulder
				{
					OFFSET 4.132702 0.575449 10.599197
					CHANNELS 3 Xrotation Yrotation Zrotation
					JOINT LeftArm
					{
						OFFSET 0.000000 -0.000003 13.901802
						CHANNELS 3 Xrotation Yrotation Zrotation
						JOINT LeftArmRoll
						{
							OFFSET 0.000000 -0.000001 7.017891
							CHANNELS 3 Xrotation Yrotation Zrotation
							JOINT LeftForeArm
							{
								OFFSET 0.000000 -0.000003 20.440598
								CHANNELS 3 Xrotation Yrotation Zrotation
								JOINT LeftForeArmRoll
								{
									OFFSET 0.000000 -0.000002 7.875153
									CHANNELS 3 Xrotation Yrotation Zrotation
									JOINT LeftHand
									{
										OFFSET 0.000000 -0.000002 15.803696
										CHANNELS 3 Xrotation Yrotation Zrotation
										End Site
										{
											OFFSET 0.000000 0.000000 0.100006
										}
									}
								}
							}
						}
					}
				}
			}
		}
	}
	JOINT RightUpLeg
	{
		OFFSET -7.060482 1.086091 -1.294701
		CHANNELS 3 Xrotation Yrotation Zrotation
		JOINT RightUpLegRoll
		{
			OFFSET 0.000000 -0.000004 18.530800
			CHANNELS 3 Xrotation Yrotation Zrotation
			JOINT RightLeg
			{
				OFFSET 0.000000 0.000004 -22.947598
				CHANNELS 3 Xrotation Yrotation Zrotation
				JOINT RightLegRoll
				{
					OFFSET 0.000000 -0.000004 23.022594
					CHANNELS 3 Xrotation Yrotation Zrotation
					JOINT RightFoot
					{
						OFFSET 0.000000 -0.000003 19.162498
						CHANNELS 3 Xrotation Yrotation Zrotation
						JOINT RightToeBase
						{
							OFFSET 0.000000 -0.000003 16.018799
							CHANNELS 3 Xrotation Yrotation Zrotation
							End Site
							{
								OFFSET 0.006790 0.894206 7.757820
							}
						}
					}
				}
			}
		}
	}
	JOINT LeftUpLeg
	{
		OFFSET 7.060482 1.086091 -1.294701
		CHANNELS 3 Xrotation Yrotation Zrotation
		JOINT LeftUpLegRoll
		{
			OFFSET 0.000000 -0.000004 18.530891
			CHANNELS 3 Xrotation Yrotation Zrotation
			JOINT LeftLeg
			{
				OFFSET 0.000000 -0.000004 22.947502
				CHANNELS 3 Xrotation Yrotation Zrotation
				JOINT LeftLegRoll
				{
					OFFSET 0.000000 -0.000004 23.235497
					CHANNELS 3 Xrotation Yrotation Zrotation
					JOINT LeftFoot
					{
						OFFSET 0.000000 -0.000003 18.949600
						CHANNELS 3 Xrotation Yrotation Zrotation
						JOINT LeftToeBase
						{
							OFFSET 0.000000 -0.000002 16.018799
							CHANNELS 3 Xrotation Yrotation Zrotation
							End Site
							{
								OFFSET -0.030430 0.894204 7.757828
							}
						}
					}
				}
			}
		}
	}
}
MOTION
Frames: 11
Frame Time: 0.041667
51.943096 -30.827904 95.770004 -1.833103 0.867202 3.297403 -2.096581 -0.326538 -0.007606 -0.190672 -0.664440 -0.037156 1.454438 -0.664831 -0.029193 23.792305 -0.559892 -1.809363 -5.209402 -0.802707 -1.789502 5.447060 -72.260881 4.363387 -58.206121 -113.420851 -35.852179 0.000000 -0.000001 -0.000021 0.034203 -3.755511 -0.283841 -0.000002 0.000005 -3.040419 -5.000160 -7.999591 0.000057 3.344876 69.637959 -2.411550 -48.072688 117.148959 28.084666 -0.000003 -0.000000 0.000001 4.052482 1.849498 -0.399469 -0.000004 -0.000017 3.006929 -5.000172 7.999901 -0.000036 0.959658 -177.365369 -2.836565 -179.999991 0.000005 -1.123998 174.857965 -2.377401 -0.634867 -0.000002 0.000003 0.057310 68.840165 6.952266 1.973500 25.456959 -7.355617 0.000002 -0.984821 173.922885 0.500040 -0.000004 -0.000004 -1.109000 -7.256567 1.899039 0.379026 -0.000007 -0.000002 -0.089391 69.614504 -6.787981 -2.360247 25.456948 7.355613 -0.000001 
51.945896 -30.816204 95.765900 -1.813908 0.860847 3.302741 -2.096483 -0.324771 -0.008702 -0.190683 -0.659836 -0.038346 1.454437 -0.660242 -0.030438 23.760534 -0.566826 -1.812912 -5.202240 -0.800824 -1.793360 5.412732 -72.263135 4.325668 -58.215082 -113.441253 -35.875753 -0.000003 -0.000001 -0.000022 0.034207 -3.760671 -0.283849 -0.000004 0.000005 -3.040421 -5.000160 -7.999591 0.000058 3.339528 69.625541 -2.407270 -48.114530 117.167906 28.143605 -0.000002 -0.000000 0.000001 4.012109 1.860662 -0.398622 -0.000003 -0.000017 3.006931 -5.000177 7.999899 -0.000036 0.910192 -177.356326 -2.831896 -179.999991 0.000006 -1.123998 174.822257 -2.382246 -0.636800 -0.000001 0.000003 0.057576 68.840903 6.952275 1.973655 25.456953 -7.355617 0.000001 -1.025975 173.933964 0.512771 -0.000005 -0.000004 -1.109060 -7.273364 1.896269 0.379546 -0.000007 -0.000002 -0.089511 69.612366 -6.788889 -2.358041 25.456948 7.355612 -0.000000 
51.943996 -30.802204 95.765610 -1.794941 0.854472 3.308067 -2.096412 -0.323012 -0.009790 -0.190771 -0.655220 -0.039485 1.454346 -0.655642 -0.031633 23.729062 -0.573875 -1.816585 -5.195315 -0.798875 -1.797356 5.377207 -72.265614 4.286622 -58.224009 -113.461661 -35.899006 -0.000002 -0.000001 -0.000022 0.034201 -3.765710 -0.283859 -0.000003 0.000005 -3.040420 -5.000160 -7.999591 0.000057 3.334404 69.613227 -2.403226 -48.157465 117.186047 28.203941 0.000001 -0.000001 -0.000002 3.971423 1.872157 -0.397768 -0.000004 -0.000017 3.006931 -5.000175 7.999899 -0.000035 0.861948 -177.347296 -2.826865 -179.999991 0.000005 -1.123001 174.787874 -2.386102 -0.637595 -0.000002 0.000003 0.057824 68.841115 6.952287 1.973843 25.456957 -7.355616 0.000002 -1.067054 173.944031 0.525403 -0.000005 -0.000005 -1.109150 -7.290833 1.893557 0.380105 -0.000008 -0.000002 -0.089641 69.610631 -6.789742 -2.355903 25.456947 7.355611 -0.000000 
51.944996 -30.796104 95.769714 -1.776156 0.848083 3.313378 -2.096374 -0.321257 -0.010872 -0.190917 -0.650596 -0.040590 1.454204 -0.651032 -0.032793 23.697988 -0.581002 -1.820359 -5.188575 -0.796880 -1.801440 5.340787 -72.268210 4.246587 -58.232663 -113.481899 -35.921891 -0.000002 -0.000001 -0.000022 0.034205 -3.770650 -0.283872 -0.000004 0.000005 -3.040430 -5.000162 -7.999590 0.000057 3.329398 69.600905 -2.399309 -48.198903 117.204871 28.262694 -0.000000 0.000000 -0.000000 3.930528 1.883881 -0.396903 -0.000006 -0.000017 3.006930 -5.000174 7.999901 -0.000036 0.814556 -177.338267 -2.821571 -179.999991 0.000005 -1.123001 174.754461 -2.390954 -0.639443 -0.000002 0.000003 0.058059 68.840903 6.952274 1.974054 25.456957 -7.355616 0.000002 -1.108072 173.955124 0.537927 -0.000005 -0.000004 -1.109260 -7.308782 1.890872 0.380690 -0.000007 -0.000002 -0.089778 69.609210 -6.790574 -2.353840 25.456948 7.355613 -0.000001 
51.944195 -30.781105 95.769012 -1.757451 0.841689 3.318695 -2.096330 -0.319505 -0.011952 -0.191093 -0.645967 -0.041675 1.454023 -0.646418 -0.033934 23.667123 -0.588173 -1.824189 -5.181939 -0.794860 -1.805573 5.303898 -72.270921 4.206023 -58.243263 -113.501604 -35.946712 -0.000003 -0.000001 -0.000022 0.034205 -3.775530 -0.283889 -0.000005 0.000005 -3.040431 -5.000158 -7.999592 0.000057 3.324458 69.588583 -2.395459 -48.239977 117.223559 28.321215 0.000001 0.000000 -0.000000 3.889504 1.895747 -0.396026 -0.000001 -0.000017 3.006932 -5.000175 7.999900 -0.000035 0.767657 -177.329237 -2.816139 -179.999991 0.000005 -1.123001 174.721594 -2.396800 -0.640368 -0.000002 0.000002 0.058289 68.840479 6.952287 1.974283 25.456957 -7.355616 0.000001 -1.149056 173.965205 0.550416 -0.000004 -0.000004 -1.109380 -7.327000 1.888226 0.381292 -0.000008 -0.000003 -0.089919 69.607892 -6.791414 -2.351772 25.456948 7.355612 0.000000 
51.938095 -30.762108 95.764999 -1.738776 0.835295 3.324016 -2.096303 -0.317754 -0.013030 -0.191276 -0.641337 -0.042755 1.453841 -0.641802 -0.035069 23.636254 -0.595351 -1.828035 -5.175318 -0.792834 -1.809727 5.266828 -72.273613 4.165270 -58.251890 -113.521842 -35.969357 -0.000003 -0.000001 -0.000022 0.034203 -3.780409 -0.283906 -0.000005 0.000006 -3.040430 -5.000158 -7.999594 0.000057 3.319566 69.576364 -2.391662 -48.280992 117.242273 28.379692 0.000001 0.000000 -0.000000 3.848455 1.907632 -0.395130 -0.000002 -0.000016 3.006931 -5.000177 7.999901 -0.000037 0.720872 -177.320208 -2.810685 -179.999991 0.000005 -1.123001 174.688877 -2.401651 -0.642199 -0.000002 0.000003 0.058516 68.839954 6.952291 1.974516 25.456957 -7.355616 0.000002 -1.190042 173.976284 0.562860 -0.000005 -0.000004 -1.109510 -7.345290 1.885570 0.381895 -0.000008 -0.000003 -0.090061 69.606588 -6.792286 -2.349709 25.456948 7.355613 -0.000001 
51.949295 -30.738613 95.767014 -1.720061 0.828910 3.329351 -2.096261 -0.316002 -0.014111 -0.191444 -0.636711 -0.043844 1.453670 -0.637190 -0.036214 23.605281 -0.602502 -1.831874 -5.168651 -0.790822 -1.813852 5.230017 -72.276201 4.124799 -58.260530 -113.542080 -35.992129 -0.000003 -0.000001 -0.000022 0.034202 -3.785310 -0.283920 -0.000001 0.000005 -3.040430 -5.000161 -7.999593 0.000058 3.314635 69.564036 -2.387825 -48.323568 117.260387 28.439878 0.000001 -0.000000 0.000001 3.807462 1.919458 -0.394221 -0.000002 -0.000017 3.006929 -5.000175 7.999902 -0.000035 0.673846 -177.311192 -2.805318 -179.999991 0.000006 -1.122003 174.655860 -2.406500 -0.643050 -0.000002 0.000003 0.058748 68.839632 6.952272 1.974734 25.456953 -7.355617 0.000002 -1.231033 173.986379 0.575332 -0.000005 -0.000005 -1.109630 -7.363449 1.882914 0.382488 -0.000007 -0.000003 -0.090200 69.605263 -6.793089 -2.347635 25.456952 7.355612 -0.000001 
51.940697 -30.723110 95.760406 -1.701219 0.822541 3.334689 -2.096209 -0.314247 -0.015195 -0.191573 -0.632088 -0.044959 1.453548 -0.632582 -0.037384 23.574114 -0.609590 -1.835651 -5.161862 -0.788845 -1.817909 5.193819 -72.278776 4.085010 -58.269273 -113.562400 -36.015079 -0.000003 -0.000001 -0.000021 0.034201 -3.790279 -0.283935 -0.000003 0.000005 -3.040430 -5.000160 -7.999591 0.000057 3.309626 69.551714 -2.383900 -48.364638 117.279197 28.498292 -0.000002 -0.000000 0.000001 3.766621 1.931124 -0.393290 -0.000005 -0.000017 3.006930 -5.000173 7.999900 -0.000034 0.626206 -177.302149 -2.800175 -179.999991 0.000005 -1.122003 174.622160 -2.411345 -0.643936 -0.000002 0.000003 0.058987 68.839530 6.952264 1.975039 25.456955 -7.355618 0.000002 -1.272054 173.997457 0.587817 -0.000004 -0.000004 -1.109730 -7.381257 1.880220 0.383060 -0.000007 -0.000002 -0.090336 69.603739 -6.793954 -2.345484 25.456948 7.355612 -0.000000 
51.940495 -30.705204 95.756119 -1.682193 0.816194 3.340040 -2.096131 -0.312485 -0.016286 -0.191638 -0.627477 -0.046114 1.453477 -0.627985 -0.038594 23.542547 -0.616580 -1.839346 -5.154865 -0.786922 -1.821869 5.158568 -72.281098 4.046277 -58.278159 -113.582802 -36.038366 -0.000002 -0.000001 -0.000021 0.034202 -3.795350 -0.283944 -0.000004 0.000005 -3.040429 -5.000160 -7.999593 0.000057 3.304478 69.539399 -2.379831 -48.405957 117.298144 28.556807 0.000000 0.000000 0.000001 3.726039 1.942520 -0.392336 -0.000006 -0.000017 3.006930 -5.000173 7.999900 -0.000036 0.577587 -177.293133 -2.795362 -179.999991 0.000005 -1.122004 174.587408 -2.415193 -0.645775 -0.000001 0.000003 0.059240 68.839947 6.952254 1.975212 25.456959 -7.355617 0.000002 -1.313144 174.008563 0.600369 -0.000005 -0.000004 -1.109810 -7.398524 1.877489 0.383597 -0.000007 -0.000003 -0.090463 69.601916 -6.794839 -2.343355 25.456950 7.355613 0.000000 
51.942196 -30.691208 95.757019 -1.662895 0.809878 3.345421 -2.096019 -0.310715 -0.017385 -0.191618 -0.622878 -0.047323 1.453496 -0.623402 -0.039858 23.510573 -0.623437 -1.842913 -5.147596 -0.785074 -1.825681 5.124685 -72.283284 4.009061 -58.287318 -113.603367 -36.062296 -0.000001 -0.000001 -0.000020 0.034203 -3.800570 -0.283953 -0.000003 0.000005 -3.040440 -5.000160 -7.999591 0.000057 3.299078 69.526879 -2.375498 -48.446088 117.317925 28.613816 -0.000000 -0.000001 -0.000002 3.685775 1.953544 -0.391364 -0.000003 -0.000016 3.006933 -5.000178 7.999899 -0.000036 0.527624 -177.284103 -2.790999 -179.999991 0.000005 -1.122004 174.551140 -2.419031 -0.647683 -0.000002 0.000003 0.059512 68.840896 6.952274 1.975353 25.456955 -7.355616 0.000002 -1.354312 174.018658 0.613043 -0.000005 -0.000005 -1.109860 -7.415041 1.874692 0.384087 -0.000007 -0.000003 -0.090579 69.599566 -6.795771 -2.341168 25.456945 7.355612 0.000000 
51.938698 -30.669308 95.755005 -1.643283 0.803600 3.350824 -2.095860 -0.308935 -0.018496 -0.191488 -0.618294 -0.048603 1.453635 -0.618836 -0.041193 23.478010 -0.630125 -1.846319 -5.139983 -0.783319 -1.829308 5.092483 -72.285121 3.973713 -58.294510 -113.624452 -36.084381 -0.000000 -0.000001 -0.000021 0.034202 -3.805980 -0.283954 -0.000001 0.000006 -3.040440 -5.000158 -7.999592 0.000057 3.293459 69.514380 -2.370931 -48.487919 117.337186 28.672475 0.000001 -0.000000 -0.000001 3.645937 1.964111 -0.390357 -0.000005 -0.000017 3.006930 -5.000177 7.999899 -0.000034 0.475948 -177.275101 -2.787202 -179.999991 0.000005 -1.121006 174.512986 -2.422861 -0.648665 -0.000002 0.000003 0.059809 68.842699 6.952274 1.975441 25.456952 -7.355617 0.000002 -1.395590 174.029764 0.625824 -0.000005 -0.000004 -1.109870 -7.430606 1.871810 0.384519 -0.000007 -0.000002 -0.090681 69.596814 -6.796720 -2.338807 25.456950 7.355612 -0.000001 
